<svg width="400" height="100" viewBox="0 0 400 100" fill="none" xmlns="http://www.w3.org/2000/svg">
<rect width="400" height="100" fill="black"/>
<path d="M41.8375 55.408H38.4055V65H31.6295V35.344H41.8375C45.1229 35.344 47.7775 36.268 49.8015 38.116C51.8549 39.964 52.8815 42.3107 52.8815 45.156C52.8815 48.412 51.8109 50.9347 49.6695 52.724C47.5575 54.5133 44.9469 55.408 41.8375 55.408ZM41.0455 40.756H38.4055V50.04H40.6495C44.2282 50.04 46.0175 48.412 46.0175 45.156C46.0175 42.2227 44.3602 40.756 41.0455 40.756ZM66.5425 40.844H63.1985V49.204H66.4105C69.3438 49.204 70.8105 47.7667 70.8105 44.892C70.8105 43.6307 70.4292 42.648 69.6665 41.944C68.9038 41.2107 67.8625 40.844 66.5425 40.844ZM63.1985 65H56.4225V35.344H66.6745C69.9892 35.344 72.6438 36.224 74.6385 37.984C76.6625 39.744 77.6745 42.032 77.6745 44.848C77.6745 49.072 75.8705 51.9907 72.2625 53.604L79.7865 65H71.6905L65.2665 54.704H63.1985V65ZM111.214 50.084C111.214 54.6307 109.894 58.312 107.254 61.128C104.643 63.9147 101.153 65.308 96.7818 65.308C92.3818 65.308 88.8765 63.9147 86.2658 61.128C83.6552 58.3413 82.3498 54.66 82.3498 50.084C82.3498 45.5373 83.6552 41.8707 86.2658 39.084C88.9058 36.268 92.4112 34.86 96.7818 34.86C101.182 34.86 104.687 36.2533 107.298 39.04C109.909 41.8267 111.214 45.508 111.214 50.084ZM91.5458 43.484C90.2552 45.0973 89.6098 47.2973 89.6098 50.084C89.6098 52.8707 90.2552 55.0853 91.5458 56.728C92.8365 58.3413 94.5818 59.148 96.7818 59.148C98.9818 59.148 100.727 58.3413 102.018 56.728C103.309 55.0853 103.954 52.8707 103.954 50.084C103.954 47.2973 103.309 45.0973 102.018 43.484C100.727 41.8413 98.9818 41.02 96.7818 41.02C94.5818 41.02 92.8365 41.8413 91.5458 43.484ZM127.596 56.024C127.596 58.8693 126.834 61.084 125.308 62.668C123.812 64.252 121.715 65.044 119.016 65.044C116.992 65.044 115.423 64.7507 114.308 64.164V58.18C115.394 58.8547 116.523 59.192 117.696 59.192C119.779 59.192 120.82 58.0773 120.82 55.848V35.388H127.596V56.024ZM151.515 65H133.079V35.344H151.339V40.756H139.899V47.488H150.107V52.856H139.899V59.588H151.515V65ZM178.924 63.68C177.135 64.7947 174.554 65.352 171.18 65.352C166.839 65.352 163.202 63.9587 160.268 61.172C157.364 58.356 155.912 54.7187 155.912 50.26C155.912 45.7427 157.32 42.0613 160.136 39.216C162.982 36.3707 166.678 34.948 171.224 34.948C174.568 34.948 177.135 35.5053 178.924 36.62V43.132C176.724 41.7827 174.275 41.108 171.576 41.108C169.2 41.108 167.206 41.944 165.592 43.616C163.979 45.2587 163.172 47.4733 163.172 50.26C163.172 52.988 163.979 55.1587 165.592 56.772C167.206 58.356 169.288 59.148 171.84 59.148C174.598 59.148 176.959 58.444 178.924 57.036V63.68ZM203.753 40.8H196.537V65H189.717V40.8H182.457V35.344H203.753V40.8ZM237.366 56.376C237.366 59.0453 236.384 61.216 234.418 62.888C232.453 64.5307 229.842 65.352 226.586 65.352C223.096 65.352 220.25 64.736 218.05 63.504V56.684C220.72 58.62 223.565 59.588 226.586 59.588C227.613 59.588 228.464 59.324 229.138 58.796C229.813 58.2387 230.15 57.52 230.15 56.64C230.15 56.3467 230.106 56.068 230.018 55.804C229.93 55.54 229.769 55.2907 229.534 55.056C229.3 54.8213 229.065 54.6307 228.83 54.484C228.625 54.308 228.302 54.1173 227.862 53.912C227.452 53.6773 227.1 53.4867 226.806 53.34C226.513 53.1933 226.073 52.988 225.486 52.724C224.929 52.46 224.474 52.2547 224.122 52.108C222.216 51.228 220.676 50.1427 219.502 48.852C218.358 47.5613 217.786 45.8453 217.786 43.704C217.786 41.152 218.725 39.0987 220.602 37.544C222.48 35.96 225.076 35.168 228.39 35.168C231.353 35.168 233.905 35.6667 236.046 36.664V43C233.67 41.6213 231.206 40.932 228.654 40.932C227.51 40.932 226.63 41.1667 226.014 41.636C225.428 42.1053 225.134 42.7067 225.134 43.44C225.134 44.1733 225.501 44.8333 226.234 45.42C226.968 45.9773 228.068 46.5787 229.534 47.224C230.444 47.6347 231.192 48.0013 231.778 48.324C232.394 48.6173 233.084 49.0427 233.846 49.6C234.638 50.128 235.254 50.7 235.694 51.316C236.164 51.9027 236.56 52.636 236.882 53.516C237.205 54.396 237.366 55.3493 237.366 56.376ZM263.444 63.68C261.655 64.7947 259.073 65.352 255.7 65.352C251.359 65.352 247.721 63.9587 244.788 61.172C241.884 58.356 240.432 54.7187 240.432 50.26C240.432 45.7427 241.84 42.0613 244.656 39.216C247.501 36.3707 251.197 34.948 255.744 34.948C259.088 34.948 261.655 35.5053 263.444 36.62V43.132C261.244 41.7827 258.795 41.108 256.096 41.108C253.72 41.108 251.725 41.944 250.112 43.616C248.499 45.2587 247.692 47.4733 247.692 50.26C247.692 52.988 248.499 55.1587 250.112 56.772C251.725 58.356 253.808 59.148 256.36 59.148C259.117 59.148 261.479 58.444 263.444 57.036V63.68ZM278.636 40.844H275.292V49.204H278.504C281.438 49.204 282.904 47.7667 282.904 44.892C282.904 43.6307 282.523 42.648 281.76 41.944C280.998 41.2107 279.956 40.844 278.636 40.844ZM275.292 65H268.516V35.344H278.768C282.083 35.344 284.738 36.224 286.732 37.984C288.756 39.744 289.768 42.032 289.768 44.848C289.768 49.072 287.964 51.9907 284.356 53.604L291.88 65H283.784L277.36 54.704H275.292V65ZM313.98 65H295.544V35.344H313.804V40.756H302.364V47.488H312.572V52.856H302.364V59.588H313.98V65ZM337.913 65H319.477V35.344H337.737V40.756H326.297V47.488H336.505V52.856H326.297V59.588H337.913V65ZM350.187 65H343.411V35.344H350.847L357.755 47.62C358.723 49.3507 359.559 50.9787 360.263 52.504C360.996 54 361.465 55.056 361.671 55.672L362.023 56.64C361.729 54.4693 361.583 51.4627 361.583 47.62V35.344H368.359V65H360.923L353.839 52.724C352.9 51.14 352.064 49.5853 351.331 48.06C350.627 46.5053 350.143 45.3613 349.879 44.628L349.527 43.528C349.967 46.168 350.187 49.2333 350.187 52.724V65Z" fill="white"/>
</svg>
